<?xml version="1.0" encoding="iso-8859-1"?>
<!-- Generator: Adobe Illustrator 19.0.0, SVG Export Plug-In . SVG Version: 6.00 Build 0)  -->
<svg version="1.1" id="Layer_1" xmlns="http://www.w3.org/2000/svg" xmlns:xlink="http://www.w3.org/1999/xlink" x="0px" y="0px"
	 viewBox="0 0 512.001 512.001" style="enable-background:new 0 0 512.001 512.001;" xml:space="preserve">
<path style="fill:#776959;" d="M285.941,33.147c0-16.535-13.405-29.941-29.942-29.941s-29.941,13.407-29.941,29.941
	c0,16.539,13.405,29.942,29.941,29.942S285.941,49.686,285.941,33.147z"/>
<path style="fill:#D8722E;" d="M41.432,250.615H470.57C456.971,144.222,366.091,61.983,256,61.983
	C145.909,61.983,55.028,144.221,41.432,250.615z"/>
<path style="fill:#E58741;" d="M256,61.983c-14.076,0-27.836,1.353-41.165,3.92c16.2,79.326,66.526,146.216,134.961,184.711H470.57
	C456.971,144.221,366.091,61.983,256,61.983z"/>
<path style="fill:#635344;" d="M248.151,33.147c0-12.632,7.828-23.431,18.895-27.828c-3.419-1.358-7.144-2.113-11.046-2.113
	c-16.537,0-29.941,13.407-29.941,29.941c0,16.539,13.405,29.942,29.941,29.942c3.903,0,7.627-0.754,11.046-2.112
	C255.979,56.58,248.151,45.783,248.151,33.147z"/>
<path style="fill:#C15316;" d="M267.046,62.268c-3.66-0.184-7.34-0.285-11.046-0.285c-110.091,0-200.972,82.238-214.568,188.631
	h22.092C76.663,147.803,161.974,67.554,267.046,62.268z"/>
<path style="fill:#FFC07D;" d="M325.161,400.859h125.745c0.026-0.557,0.082-1.102,0.082-1.666v-84.249
	c0-16.904-13.699-30.608-30.606-30.608h-68.296h-26.925H57.388c0,0-3.991,24.953,34.931,41.917
	c34.086,14.86,193.701,34.311,232.842,38.916V400.859z"/>
<path style="fill:#F2A261;" d="M346.886,400.859v-48.445c0-6.996-8.475-8.869-8.475-8.869
	c-49.709-5.961-192.364-23.958-224.367-37.909c-15.008-6.542-23.632-14.269-28.568-21.297H57.388c0,0-3.991,24.953,34.931,41.917
	c34.086,14.86,193.701,34.311,232.842,38.916v35.689h21.725V400.859z"/>
<path style="fill:#776959;" d="M512,267.476c0,9.924-8.044,17.966-17.966,17.966H17.966C8.045,285.44,0,277.4,0,267.476l0,0
	c0-9.919,8.045-17.966,17.966-17.966h476.069C503.956,249.51,512,257.555,512,267.476L512,267.476z"/>
<path style="fill:#937F6C;" d="M494.034,249.51H347.82c36.356,20.845,77.921,33.633,122.263,35.93h23.953
	c9.922,0,17.966-8.041,17.966-17.966C512,257.555,503.956,249.51,494.034,249.51z"/>
<path style="fill:#E0E1E2;" d="M484.555,466.924c0,7.32-5.935,13.255-13.255,13.255H318.16c-7.321,0-13.255-5.935-13.255-13.255
	v-60.543c0-7.32,5.934-13.255,13.255-13.255h153.139c7.32,0,13.255,5.935,13.255,13.255V466.924z"/>
<path style="fill:#C4C4C4;" d="M326.997,466.924v-60.543c0-7.32,5.934-13.255,13.255-13.255H318.16
	c-7.321,0-13.255,5.935-13.255,13.255v60.543c0,7.32,5.934,13.255,13.255,13.255h22.092
	C332.931,480.179,326.997,474.244,326.997,466.924z"/>
<path style="fill:#49516D;" d="M491.54,434.935h-6.986H312.89h-14.971c-9.924,0-17.966,8.045-17.966,17.966v37.928
	c0,9.919,8.041,17.966,17.966,17.966h14.971h163.68h14.971c9.922,0,17.966-8.045,17.966-17.966v-37.928
	C509.506,442.98,501.463,434.935,491.54,434.935z"/>
<path style="fill:#3A435E;" d="M302.047,490.829v-37.928c0-9.919,8.041-17.966,17.966-17.966h-7.121H297.92
	c-9.924,0-17.966,8.045-17.966,17.966v37.928c0,9.919,8.041,17.966,17.966,17.966h14.971h7.121
	C310.088,508.793,302.047,500.748,302.047,490.829z"/>
<g>
</g>
<g>
</g>
<g>
</g>
<g>
</g>
<g>
</g>
<g>
</g>
<g>
</g>
<g>
</g>
<g>
</g>
<g>
</g>
<g>
</g>
<g>
</g>
<g>
</g>
<g>
</g>
<g>
</g>
</svg>
